<svg width="12" height="15" viewBox="0 0 12 15" fill="none" xmlns="http://www.w3.org/2000/svg">
<path fill-rule="evenodd" clip-rule="evenodd" d="M9.89839 3.88512V4.98913C11.1142 5.37621 12 6.49882 12 7.83965V11.3942C12 13.0542 10.6508 14.4 8.98745 14.4H3.01327C1.34919 14.4 0 13.0542 0 11.3942V7.83965C0 6.49882 0.886551 5.37621 2.10161 4.98913V3.88512C2.10879 1.73865 3.85176 0 5.98924 0C8.15541 0 9.89839 1.73865 9.89839 3.88512ZM6.00358 1.25205C7.45965 1.25205 8.64315 2.43261 8.64315 3.88506V4.83381H3.35684V3.87075C3.36401 2.42546 4.54751 1.25205 6.00358 1.25205ZM6.62769 10.4075C6.62769 10.758 6.34795 11.0371 5.99649 11.0371C5.6522 11.0371 5.37246 10.758 5.37246 10.4075V8.81906C5.37246 8.47562 5.6522 8.19658 5.99649 8.19658C6.34795 8.19658 6.62769 8.47562 6.62769 8.81906V10.4075Z" fill="white"/>
</svg>
