<svg width="15" height="18" viewBox="0 0 15 18" fill="none" xmlns="http://www.w3.org/2000/svg">
<path fill-rule="evenodd" clip-rule="evenodd" d="M12.373 4.8564V6.23641C13.8927 6.72026 15 8.12352 15 9.79956V14.2428C15 16.3177 13.3135 18 11.2343 18H3.76659C1.68649 18 0 16.3177 0 14.2428V9.79956C0 8.12352 1.10819 6.72026 2.62702 6.23641V4.8564C2.63598 2.17331 4.8147 0 7.48655 0C10.1943 0 12.373 2.17331 12.373 4.8564ZM7.50451 1.56511C9.32459 1.56511 10.804 3.04082 10.804 4.85638V6.04231H4.19608V4.83849C4.20504 3.03187 5.68442 1.56511 7.50451 1.56511ZM8.28454 13.0094C8.28454 13.4477 7.93487 13.7965 7.49554 13.7965C7.06517 13.7965 6.7155 13.4477 6.7155 13.0094V11.0239C6.7155 10.5947 7.06517 10.2458 7.49554 10.2458C7.93487 10.2458 8.28454 10.5947 8.28454 11.0239V13.0094Z" fill="#1E1E1E"/>
</svg>
