<svg width="19" height="19" viewBox="0 0 19 19" fill="none" xmlns="http://www.w3.org/2000/svg">
<path fill-rule="evenodd" clip-rule="evenodd" d="M7.21897 8.43928C6.81895 8.43928 6.50265 8.75016 6.50265 9.14332C6.50265 9.52734 6.81895 9.84735 7.21897 9.84735H12.8006V14.2179C12.8006 16.458 10.9494 18.2866 8.6609 18.2866H4.13044C1.85126 18.2866 0 16.4671 0 14.227V4.06878C0 1.81952 1.86056 0 4.13974 0H8.67951C10.9494 0 12.8006 1.81952 12.8006 4.05963V8.43928H7.21897ZM16.1198 5.97987L18.7897 8.64058C18.9268 8.77773 19 8.95145 19 9.14346C19 9.32633 18.9268 9.50919 18.7897 9.6372L16.1198 12.2979C15.9827 12.4351 15.7998 12.5082 15.6261 12.5082C15.4432 12.5082 15.2604 12.4351 15.1232 12.2979C14.8489 12.0236 14.8489 11.5756 15.1232 11.3013L16.5861 9.8475H12.8008V8.43942H16.5861L15.1232 6.98564C14.8489 6.71134 14.8489 6.26331 15.1232 5.98901C15.3975 5.70557 15.8455 5.70557 16.1198 5.97987Z" fill="#1E1E1E"/>
</svg>
